<svg version="1.2" xmlns="http://www.w3.org/2000/svg" viewBox="0 0 685 685" width="685" height="685"><style>.a{stroke:#000;stroke-linejoin:round;stroke-width:10}</style><path fill-rule="evenodd" d="m263.1 453h-134q-3.6 0-3.6-4v-230.4q0-4 3.6-4h134q4 0 4 4v29.5q0 4-4 4h-95.8v62.2h87.8q3.6 0 3.6 4.4v27.3q0 4-3.6 4h-87.8v65.5h95.8q4 0 4 4v29.5q0 4-4 4zm198.9 0h-164.2q-4 0-4-4v-1.8q0-1.1 0.4-2.2 0.7-1.5 1.1-2.9l93.2-154q5.4-9.5 10.5-18.2 5.5-9.1 11.3-17.8v-0.4q-9.8 0.4-19.7 0.4-9.8 0-19.2 0h-63q-4 0-4-4v-29.5q0-4 4-4h161.2q4 0 4 4v1.8q0 2.6-1.4 5.1l-92.5 151.8q-5.8 9.8-12 19.6-5.8 9.5-11.6 18.6v0.7q10.2-0.7 20.4-0.7 10.5 0 21.1 0h64.4q3.6 0 3.6 4v29.5q0 4-3.6 4zm179.4 0h-33.5q-4 0-4-4v-39.7h-114.3q-4 0-4-4v-6.2q0-4 1.1-5.8l87.4-175.8q2.2-2.9 5.1-2.9h34.9q2.2 0 2.9 1.4 1.1 1.1 0 3.3l-75.7 153.6h63.4l3.6-73.9q0.7-4.3 4-4.3h29.1q4.4 0 4.4 4.3v73.9h22.9q4.4 0 4.4 4.4v28q0 4-4.4 4h-22.9v39.7q0 4-4.4 4z"/><path fill-rule="evenodd" class="a" d="m346.5 678.6c-186.1 0-336.5-150.4-336.5-336.5 0-186 150.4-336.5 336.5-336.5 125.8 0 235.4 68.8 293.1 170.9h-2q0.3 0.5 0.6 1.1h-57.5c-52.4-74.9-139.2-123.8-237.7-123.8-160.2 0-289.8 129.5-289.8 289.8 0 160.2 129.6 289.7 289.8 289.7 106.8 0 199.9-57.5 250.2-143.3h55.7c-54.6 111.8-169.4 188.6-302.4 188.6z"/></svg>