<svg version="1.2" xmlns="http://www.w3.org/2000/svg" width="685" height="685">
<path d="m345.3 685.8c-189.3 0-342.3-153-342.3-342.3 0-189.3 153-342.3 342.3-342.3 128 0 239.4 70 298.2 173.8h-2.1q0.3 0.5 0.6 1.1h-58.5c-53.2-76.2-141.6-125.9-241.7-125.9-163.1 0-294.8 131.7-294.8 294.7 0 163.1 131.7 294.8 294.8 294.8 108.6 0 203.3-58.5 254.5-145.8h56.7c-55.6 113.7-172.4 191.9-307.7 191.9z"/><path  d="m264.7 459h-133.6q-3.7 0-3.7-4v-229.9q0-4 3.7-4h133.6q4 0 4 4v29.4q0 4-4 4h-95.5v62.1h87.5q3.7 0 3.7 4.4v27.2q0 4-3.7 4h-87.5v65.4h95.5q4 0 4 4v29.4q0 4-4 4zm198.9 0h-163.8q-4 0-4-4v-1.8q0-1.1 0.4-2.2 0.7-1.4 1.1-2.9l92.9-153.6q5.5-9.5 10.6-18.2 5.4-9.1 11.2-17.8v-0.3q-9.8 0.3-19.6 0.3-9.8 0-19.2 0h-62.9q-4 0-4-4v-29.4q0-4 4-4h160.9q4 0 4 4v1.8q0 2.6-1.4 5.1l-92.3 151.5q-5.8 9.8-12 19.6-5.8 9.4-11.6 18.5v0.7q10.2-0.7 20.4-0.7 10.5 0 21 0h64.3q3.6 0 3.6 4v29.4q0 4-3.6 4zm178.5 0h-33.4q-4 0-4-4v-39.6h-114.1q-4 0-4-4v-6.2q0-3.9 1.1-5.8l87.2-175.4q2.2-2.9 5.1-2.9h34.8q2.2 0 2.9 1.5 1.1 1.1 0 3.2l-75.5 153.3h63.2l3.6-73.7q0.8-4.4 4-4.4h29.1q4.3 0 4.3 4.4v73.7h22.9q4.4 0 4.4 4.4v27.9q0 4-4.4 4h-22.9v39.6q0 4-4.3 4z"/>
</svg>